<svg xmlns="http://www.w3.org/2000/svg" height="67" width="290.17"><path d="M92.3 34.65l6.76-17.66 6.77 17.66h2.4l7.94-22.18h-2.91l-6.25 17.89-6.77-17.89h-2.32l-6.8 17.89-6.25-17.89H82l7.9 22.18zm39.68.55c2.28 0 6.61-.31 10.3-.86l-.19-2.72c-3.54.71-8.18.91-9.88.91-5.66 0-9.08-2.25-9.59-7.67h20.41v-1.34c0-8.97-4.25-11.64-11.21-11.64-6.45 0-12.07 2.28-12.07 11.48 0 8.62 4.95 11.84 12.23 11.84zm-.24-20.49c5.15 0 8.1 1.61 8.46 7.51h-17.58c.43-6.33 4.6-7.51 9.12-7.51zM152.51 3.9l-2.8.15v30.29c4.09.55 8.62.86 11.09.86 6.45 0 11.21-2.28 11.21-11.29 0-8.96-4.76-12.03-10.93-12.03-2.16 0-5.39.39-8.57.98zm8.29 10.69c4.84 0 8.42 2.17 8.42 9.32 0 7.16-3.58 8.62-8.65 8.62-1.61 0-4.8-.12-8.06-.51V15.5c3.26-.63 6.6-.91 8.29-.91zm20.69 20.06v-9.79h4.8l8.81 9.79h3.69l-9.99-11.09 9.99-11.09h-3.69l-8.81 9.75h-4.8V3.9l-2.79.15v30.6zm32.99-20.06c3.9 0 7.04 2.32 7.04 6.57l-13.88 1.5c-3.46.31-5.43 2.16-5.43 5.38 0 4.84 3.39 7.16 9.68 7.16 4.44 0 7.9-.94 9.95-3.38.51 1.81 1.85 3.14 4.6 3.14.23 0 .47 0 .79-.03l-.16-2.72s0 .12-.63.12c-1.69 0-1.97-1.65-1.97-3.22V21.2c0-6.25-4.32-9.32-9.87-9.32-3.14 0-7.19.35-10.93.87l.24 2.75c3.69-.71 7.66-.91 10.57-.91zm7.04 13.02c-.78 3.5-4.32 4.92-9.47 4.92-4.53 0-6.93-1.42-6.93-4.57 0-1.49.87-2.47 2.56-2.63l13.84-1.42zm28.36-14.79c-3.19-.59-6.37-.94-8.42-.94-6.25 0-11.01 3.07-11.01 12.03 0 9.01 4.76 11.29 11.21 11.29 2.44 0 7-.31 11.05-.86V3.9l-2.83.15zm-8.22 1.77c1.61 0 4.95.28 8.22.91v16.52c-3.27.39-6.41.51-8.03.51-5.07 0-8.57-1.46-8.57-8.62 0-7.15 3.5-9.32 8.38-9.32zm21.86-5.46V4.37h-2.79v4.76zm-2.79 3.34v22.18h2.79V12.47zm28.55 22.18v-2.71H273.2l16.08-17.35v-2.12h-19.23v2.56h15.57l-16.16 17.38v2.24z" xmlns:name="main_text" fill="#fff"/><path d="M87.945 58.02V45.39h-6.39v12.63h1.58V46.86h3.22v11.16zm9.57-6.24c0-2.4-.25-6.58-3.53-6.58-3.25 0-3.7 4.01-3.7 6.49 0 2.46.45 6.53 3.7 6.53s3.53-4.04 3.53-6.44zm-1.64-.09c0 1.27-.05 5.03-1.92 5.03-1.92 0-2-3.56-2-4.89 0-1.32.05-5.16 2-5.16 1.87 0 1.92 3.75 1.92 5.02zm5.59-6.3h-1.58V63.1h1.58V57c.6.77 1.19 1.22 2.18 1.22 2.88 0 2.97-4.04 2.97-6.75 0-2.26-.06-6.27-3.14-6.27-.9 0-1.47.34-2.01 1.04zm3.51 5.65c0 .99 0 1.98-.09 2.97-.14 1.1-.25 2.91-1.75 2.91-.42 0-.76-.14-1.02-.43-.81-.73-.79-3.78-.79-4.85 0-2.52.12-5.17 1.78-5.17 1.84 0 1.87 3.3 1.87 4.57zm9.26-4.18v-1.47h-6.47v1.47h2.43v11.16h1.61V46.86zm8.05 11.16V45.39h-1.61v.85c-.56-.7-1.1-1.04-2-1.04-3.05 0-3.11 4.18-3.11 6.75 0 2.23.08 6.27 2.96 6.27.99 0 1.59-.45 2.15-1.22v1.02zm-1.44-6.38c0 1.1 0 4.06-.79 4.85-.25.29-.59.43-1.02.43-1.44 0-1.66-1.81-1.75-2.91-.08-1.02-.08-2.01-.08-3.05 0-1.27.03-4.49 1.86-4.49 1.67 0 1.78 2.65 1.78 5.17zm11.04-6.25h-5.98v7.46c0 1.27.02 2.8-.65 3.48-.2.19-.45.31-.77.31-.28 0-.5-.09-.67-.26v1.64c.22.08.48.11.82.11.65 0 1.13-.17 1.66-.65.71-.7.91-1.72.99-2.62.09-.65.11-1.47.11-2.63v-5.37h2.91v11.16h1.58zm10.09 0v6.36c0 1.02-.03 2.12-.45 3.11-.37.87-.91 1.35-1.59 1.69v4.41h1.5v-2.94h6.1v2.94h1.5v-4.41h-1.16V45.39zm4.32 11.16h-4.32c.56-.56.99-1.21 1.21-2.09.26-.93.26-1.81.26-2.82v-4.78h2.85zm11.16-11.16h-5.99v7.46c0 1.27.03 2.8-.65 3.48-.2.19-.45.31-.76.31-.29 0-.51-.09-.68-.26v1.64c.22.08.48.11.82.11.65 0 1.13-.17 1.66-.65.71-.7.91-1.72.99-2.62.09-.65.12-1.47.12-2.63v-5.37h2.9v11.16h1.59zm1.97 12.63h1.87l2.93-5.23v5.23h1.59V45.39h-2.15c-1.1 0-2.18.09-3.11.99-.53.54-1.07 1.5-1.07 2.94 0 1.33.45 2.09.9 2.54.54.54 1.33.85 2.15.88zm4.8-6.61h-.9c-.42 0-1.1-.03-1.58-.48-.37-.37-.57-.93-.57-1.67 0-.7.17-1.46.6-1.89.48-.48 1.16-.51 1.64-.51h.81zm17.38 6.61V45.39h-6.39v12.63h1.58V46.86h3.22v11.16zm4.4-12.63h-1.58V63.1h1.58V57c.59.77 1.19 1.22 2.18 1.22 2.88 0 2.96-4.04 2.96-6.75 0-2.26-.05-6.27-3.13-6.27-.91 0-1.47.34-2.01 1.04zm3.5 5.65c0 .99 0 1.98-.08 2.97-.14 1.1-.26 2.91-1.75 2.91-.43 0-.76-.14-1.02-.43-.82-.73-.79-3.78-.79-4.85 0-2.52.11-5.17 1.78-5.17 1.84 0 1.86 3.3 1.86 4.57zm10.74.74c0-2.4-.26-6.58-3.53-6.58-3.25 0-3.7 4.01-3.7 6.49 0 2.46.45 6.53 3.7 6.53 3.24 0 3.53-4.04 3.53-6.44zm-1.64-.09c0 1.27-.06 5.03-1.92 5.03-1.92 0-2.01-3.56-2.01-4.89 0-1.32.06-5.16 2.01-5.16 1.86 0 1.92 3.75 1.92 5.02zm4.01 6.33h1.58V46.86h3.53v-1.47h-5.11zm8.53-12.63h-1.58V63.1h1.58V57c.59.77 1.19 1.22 2.17 1.22 2.89 0 2.97-4.04 2.97-6.75 0-2.26-.06-6.27-3.14-6.27-.9 0-1.46.34-2 1.04zm3.5 5.65c0 .99 0 1.98-.08 2.97-.14 1.1-.26 2.91-1.75 2.91-.43 0-.77-.14-1.02-.43-.82-.73-.79-3.78-.79-4.85 0-2.52.11-5.17 1.78-5.17 1.83 0 1.86 3.3 1.86 4.57zm10.4 6.98V45.39h-1.61v.85c-.57-.7-1.11-1.04-2.01-1.04-3.05 0-3.11 4.18-3.11 6.75 0 2.23.09 6.27 2.97 6.27.99 0 1.58-.45 2.15-1.22v1.02zm-1.44-6.38c0 1.1 0 4.06-.8 4.85-.25.29-.59.43-1.01.43-1.44 0-1.67-1.81-1.75-2.91-.09-1.02-.09-2.01-.09-3.05 0-1.27.03-4.49 1.87-4.49 1.66 0 1.78 2.65 1.78 5.17zm9.32 6.38l1.63-7.63c.15-.65.26-1.15.34-1.97.09.93.12 1.27.2 2.03l.88 7.57h1.49l-1.75-12.63h-1.41l-1.72 8c-.23.99-.34 1.89-.37 2.26-.03-.37-.14-1.27-.37-2.26l-1.72-8h-1.41l-1.75 12.63h1.49l.88-7.57c.08-.76.11-1.1.2-2.03.08.65.14 1.21.34 1.97l1.63 7.63zm11.52 0l1.64-7.63c.14-.65.25-1.15.34-1.97.08.93.11 1.27.19 2.03l.88 7.57h1.5l-1.75-12.63h-1.42l-1.72 8c-.22.99-.34 1.89-.37 2.26-.02-.37-.14-1.27-.36-2.26l-1.73-8h-1.41l-1.75 12.63h1.5l.87-7.57c.09-.76.12-1.1.2-2.03.09.65.14 1.21.34 1.97l1.64 7.63zm13.13 0V45.39h-1.58l-2.96 7.88c-.23.54-.29.71-.6 1.87.09-.9.06-1.3.06-1.95v-7.8h-1.58v12.63h1.58l2.97-7.77c.22-.56.39-1.1.59-1.89-.09 1.27-.06 1.58-.06 1.81v7.85zm7.8-2.43c-.37.54-.9 1.13-1.61 1.13-1.92 0-2.18-3.59-2.18-4.94 0-1.41.17-5.11 2.21-5.11.65 0 1.16.42 1.58.87v-1.86c-.54-.31-1.13-.48-1.72-.48-3.25 0-3.73 4.32-3.73 6.72 0 2.26.68 6.3 3.64 6.3.65 0 1.27-.23 1.81-.65zm7.26-8.73v-1.47h-6.47v1.47h2.43v11.16h1.61V46.86zm8.39 4.92c0-2.4-.26-6.58-3.53-6.58-3.25 0-3.7 4.01-3.7 6.49 0 2.46.45 6.53 3.7 6.53 3.24 0 3.53-4.04 3.53-6.44zm-1.64-.09c0 1.27-.06 5.03-1.92 5.03-1.92 0-2.01-3.56-2.01-4.89 0-1.32.06-5.16 2.01-5.16 1.86 0 1.92 3.75 1.92 5.02zm4.01-6.3v12.63h2.91c.68 0 1.75-.08 2.57-.9.76-.77.85-1.64.85-2.63 0-.71 0-1.61-.79-2.37a2.7 2.7 0 00-1.36-.71c.48-.23.79-.48.93-.62.65-.59.82-1.22.82-2.15 0-1.35-.48-2.06-.82-2.4-.76-.76-1.69-.85-2.6-.85zm1.58 5.31v-3.84h.91c.19 0 1.01.03 1.38.4.34.31.42.96.42 1.5 0 .56-.08 1.15-.42 1.49-.45.48-1.22.45-1.64.45zm0 5.85V52.2h.76c.43 0 1.16 0 1.7.54.25.25.59.76.59 1.78 0 .82-.22 1.33-.54 1.58-.45.42-1.32.45-1.75.45z" xmlns:name="slogan_text" fill="#fff"/><path d="M60.718 30.778c1.047 0 2.094-.838 2.094-2.094v-4.606C65.325 23.24 67 20.937 67 18.215c0-3.56-2.722-6.281-6.281-6.281s-6.282 2.722-6.282 6.281c0 2.722 1.675 5.025 4.188 5.863v2.512H46.062v-3.56c0-1.046-1.047-2.093-2.093-2.093h-.629v-8.794c2.513-.837 4.188-3.14 4.188-5.862 0-3.35-2.722-6.282-6.281-6.282s-6.282 2.932-6.282 6.282c0 2.722 1.675 5.025 4.188 5.862v8.794h-8.375V8.584c0-1.256-.838-2.094-2.094-2.094H19.89c-.837-2.512-3.14-4.187-5.862-4.187-3.35 0-6.281 2.93-6.281 6.28 0 3.56 2.93 6.282 6.28 6.282 2.723 0 5.026-1.675 5.863-4.187h6.7v10.259h-3.559c-1.047 0-2.094 1.047-2.094 2.094v7.328H8.375v-.628c2.512-.838 4.187-3.14 4.187-5.863 0-3.35-2.722-6.281-6.281-6.281S0 20.518 0 23.868c0 2.722 1.675 5.025 4.187 5.863v2.722c0 1.046 1.047 2.093 2.094 2.093h14.656v7.328h-8.793c-.838-2.512-3.141-4.187-5.863-4.187-3.56 0-6.281 2.931-6.281 6.281 0 3.56 2.722 6.281 6.281 6.281 2.722 0 5.025-1.675 5.863-4.187H26.59v10.26h-6.7c-.837-2.513-3.14-4.188-5.862-4.188-3.35 0-6.281 2.722-6.281 6.281s2.93 6.281 6.28 6.281c2.723 0 5.026-1.675 5.863-4.187h8.794c1.256 0 2.094-.838 2.094-2.094V46.062h8.375v8.794c-2.513.837-4.188 3.14-4.188 5.862 0 3.56 2.722 6.281 6.282 6.281s6.28-2.721 6.28-6.28c0-2.723-1.674-5.026-4.187-5.863v-8.794h.629c1.046 0 2.093-.838 2.093-2.094V39.99h10.26v10.678c-2.513.838-4.188 3.14-4.188 5.863 0 3.56 2.722 6.281 6.281 6.281s6.282-2.722 6.282-6.281c0-2.722-1.675-5.025-4.188-5.863V37.896c0-1.256-1.047-2.093-2.094-2.093H46.062v-5.025H60.72zm0-14.657c1.047 0 2.094 1.047 2.094 2.094 0 1.256-1.047 2.094-2.093 2.094s-2.094-.838-2.094-2.094.837-2.094 2.093-2.094zm-46.69-5.443c-1.047 0-2.094-.838-2.094-2.094s1.047-2.094 2.094-2.094c1.256 0 2.094.838 2.094 2.094s-1.047 2.094-2.094 2.094zM6.28 25.753c-1.047 0-2.094-.838-2.094-2.094s1.047-2.094 2.094-2.094 2.094.838 2.094 2.094-1.047 2.094-2.094 2.094zm0 20.309c-1.047 0-2.094-.838-2.094-2.094 0-1.047 1.047-2.094 2.094-2.094s2.094 1.047 2.094 2.094-1.047 2.094-2.094 2.094zm7.747 14.447c-1.047 0-2.094-.838-2.094-2.094 0-1.047 1.047-2.094 2.094-2.094 1.256 0 2.094 1.047 2.094 2.094 0 1.256-1.047 2.094-2.094 2.094zm11.097-18.635v-16.75h16.75v16.75h-16.75zm16.122 20.938c-1.047 0-2.094-.838-2.094-2.094 0-1.047 1.047-2.094 2.094-2.094 1.256 0 2.093 1.047 2.093 2.094s-1.047 2.094-2.093 2.094zm0-54.438c-1.047 0-2.094-.837-2.094-2.093 0-1.047 1.047-2.094 2.094-2.094 1.256 0 2.093 1.047 2.093 2.094s-1.047 2.093-2.093 2.093zm17.168 46.063c1.047 0 2.094 1.047 2.094 2.094 0 1.256-1.047 2.093-2.094 2.093-1.256 0-2.093-.837-2.093-2.093 0-1.047.837-2.094 2.093-2.094z" xmlns:name="symbol_mainfill" fill="#fff"/></svg>